# xmcd
#
# Track frame offsets: 
#        150
#        22459
#        48437
#        86822
#        135810
#        154166
#        177404
#        216525
#        259424
#
# Disc length: 3767 seconds
#
# Revision: 0
# Processed by: cddbd v1.5.2PL0 Copyright (c) Steve Scherf et al.
# Submitted via: ExactAudioCopy v0.95b4
#
DISCID=860eb509
DTITLE=Candy Dulfer - Live In Amsterdam
DYEAR=2001
DGENRE=Pop
TTITLE0=Bob´s Jazz
TTITLE1=Omara´s Dance
TTITLE2=For The Love Of You
TTITLE3=Sax-A-Go-Go
TTITLE4=Lily was here
TTITLE5=Synchrodestiny
TTITLE6=Nikki´s Dream
TTITLE7=Pick Up The Pieces
TTITLE8=Dance Till You Bop Revisited
EXTD=
EXTT0=
EXTT1=
EXTT2=
EXTT3=
EXTT4=
EXTT5=
EXTT6=
EXTT7=
EXTT8=
PLAYORDER=
